<?xml version="1.0" encoding="UTF-8" standalone="no"?>
<!DOCTYPE svg PUBLIC "-//W3C//DTD SVG 1.1//EN"
 "http://www.w3.org/Graphics/SVG/1.1/DTD/svg11.dtd">
<!-- Generated by graphviz version 14.1.2 (20260124.0452)
 -->
<!-- Title: G Pages: 1 -->
<svg width="1593pt" height="414pt"
 viewBox="0.00 0.00 1593.00 414.00" xmlns="http://www.w3.org/2000/svg" xmlns:xlink="http://www.w3.org/1999/xlink">
<g id="graph0" class="graph" transform="scale(1 1) rotate(0) translate(4 410)">
<title>G</title>
<polygon fill="white" stroke="none" points="-4,4 -4,-410 1589.15,-410 1589.15,4 -4,4"/>
<g id="clust1" class="cluster">
<title>cluster_cp</title>
<path fill="none" stroke="#999999" d="M58.62,-199C58.62,-199 1193.36,-199 1193.36,-199 1199.36,-199 1205.36,-205 1205.36,-211 1205.36,-211 1205.36,-386 1205.36,-386 1205.36,-392 1199.36,-398 1193.36,-398 1193.36,-398 58.62,-398 58.62,-398 52.63,-398 46.62,-392 46.62,-386 46.62,-386 46.62,-211 46.62,-211 46.62,-205 52.62,-199 58.62,-199"/>
<text xml:space="preserve" text-anchor="middle" x="625.99" y="-376.9" font-family="Arial" font-size="18.00">CONTROL PLANE</text>
</g>
<g id="clust2" class="cluster">
<title>cluster_dp</title>
<path fill="none" stroke="#999999" d="M20,-8C20,-8 1565.15,-8 1565.15,-8 1571.15,-8 1577.15,-14 1577.15,-20 1577.15,-20 1577.15,-169 1577.15,-169 1577.15,-175 1571.15,-181 1565.15,-181 1565.15,-181 20,-181 20,-181 14,-181 8,-175 8,-169 8,-169 8,-20 8,-20 8,-14 14,-8 20,-8"/>
<text xml:space="preserve" text-anchor="middle" x="792.57" y="-159.9" font-family="Arial" font-size="18.00">DATA PLANE</text>
</g>
<!-- Client -->
<g id="node1" class="node">
<title>Client</title>
<path fill="none" stroke="black" d="M136.82,-266.46C136.82,-266.46 66.62,-266.46 66.62,-266.46 60.62,-266.46 54.62,-260.46 54.62,-254.46 54.62,-254.46 54.62,-223.53 54.62,-223.53 54.62,-217.53 60.62,-211.53 66.62,-211.53 66.62,-211.53 136.82,-211.53 136.82,-211.53 142.82,-211.53 148.82,-217.53 148.82,-223.53 148.82,-223.53 148.82,-254.46 148.82,-254.46 148.82,-260.46 142.82,-266.46 136.82,-266.46"/>
<text xml:space="preserve" text-anchor="middle" x="101.72" y="-231.62" font-family="Arial" font-size="20.00">Client</text>
</g>
<!-- GW -->
<g id="node2" class="node">
<title>GW</title>
<path fill="none" stroke="black" d="M355.65,-266.46C355.65,-266.46 264.45,-266.46 264.45,-266.46 258.45,-266.46 252.45,-260.46 252.45,-254.46 252.45,-254.46 252.45,-223.53 252.45,-223.53 252.45,-217.53 258.45,-211.53 264.45,-211.53 264.45,-211.53 355.65,-211.53 355.65,-211.53 361.65,-211.53 367.65,-217.53 367.65,-223.53 367.65,-223.53 367.65,-254.46 367.65,-254.46 367.65,-260.46 361.65,-266.46 355.65,-266.46"/>
<text xml:space="preserve" text-anchor="middle" x="310.05" y="-231.62" font-family="Arial" font-size="20.00">API GW</text>
</g>
<!-- Client&#45;&gt;GW -->
<g id="edge1" class="edge">
<title>Client&#45;&gt;GW</title>
<path fill="none" stroke="black" d="M149.18,-240.66C170.68,-241.12 193.07,-240.96 240.89,-240.19"/>
<polygon fill="black" stroke="black" points="240.73,-243.69 250.67,-240.02 240.62,-236.69 240.73,-243.69"/>
</g>
<!-- RS -->
<g id="node3" class="node">
<title>RS</title>
<path fill="none" stroke="black" d="M577.1,-266.46C577.1,-266.46 444.65,-266.46 444.65,-266.46 438.65,-266.46 432.65,-260.46 432.65,-254.46 432.65,-254.46 432.65,-223.53 432.65,-223.53 432.65,-217.53 438.65,-211.53 444.65,-211.53 444.65,-211.53 577.1,-211.53 577.1,-211.53 583.1,-211.53 589.1,-217.53 589.1,-223.53 589.1,-223.53 589.1,-254.46 589.1,-254.46 589.1,-260.46 583.1,-266.46 577.1,-266.46"/>
<text xml:space="preserve" text-anchor="middle" x="510.88" y="-231.62" font-family="Arial" font-size="20.00">Rule Service</text>
</g>
<!-- GW&#45;&gt;RS -->
<g id="edge2" class="edge">
<title>GW&#45;&gt;RS</title>
<path fill="none" stroke="black" d="M368.02,-241.74C381.65,-241.94 397.35,-241.79 420.81,-241.29"/>
<polygon fill="black" stroke="black" points="420.72,-244.8 430.64,-241.07 420.57,-237.8 420.72,-244.8"/>
</g>
<!-- RDB -->
<g id="node4" class="node">
<title>RDB</title>
<path fill="none" stroke="black" d="M755.42,-248.58C755.42,-250.86 736.83,-252.71 713.96,-252.71 691.08,-252.71 672.5,-250.86 672.5,-248.58 672.5,-248.58 672.5,-211.42 672.5,-211.42 672.5,-209.14 691.08,-207.29 713.96,-207.29 736.83,-207.29 755.42,-209.14 755.42,-211.42 755.42,-211.42 755.42,-248.58 755.42,-248.58"/>
<path fill="none" stroke="black" d="M755.42,-248.58C755.42,-246.3 736.83,-244.45 713.96,-244.45 691.08,-244.45 672.5,-246.3 672.5,-248.58"/>
<text xml:space="preserve" text-anchor="middle" x="713.96" y="-224.57" font-family="Arial" font-size="14.00">Rules DB</text>
</g>
<!-- RS&#45;&gt;RDB -->
<g id="edge3" class="edge">
<title>RS&#45;&gt;RDB</title>
<path fill="none" stroke="black" d="M589.48,-239.41C606.46,-238.51 628.15,-236.9 660.6,-234.31"/>
<polygon fill="black" stroke="black" points="660.83,-237.8 670.52,-233.52 660.27,-230.83 660.83,-237.8"/>
</g>
<!-- TRULE -->
<g id="node5" class="node">
<title>TRULE</title>
<ellipse fill="none" stroke="black" cx="713.96" cy="-343" rx="54.51" ry="18"/>
<text xml:space="preserve" text-anchor="middle" x="713.96" y="-338.73" font-family="Arial" font-size="12.00">rule.changed</text>
</g>
<!-- RS&#45;&gt;TRULE -->
<g id="edge4" class="edge">
<title>RS&#45;&gt;TRULE</title>
<path fill="none" stroke="black" d="M534.77,-266.96C567.39,-303.61 585.51,-313.01 657.35,-330.09"/>
<polygon fill="black" stroke="black" points="656.34,-333.45 666.87,-332.32 657.94,-326.63 656.34,-333.45"/>
</g>
<!-- AP -->
<g id="node8" class="node">
<title>AP</title>
<path fill="none" stroke="black" d="M175.45,-105.47C175.45,-105.47 28,-105.47 28,-105.47 22,-105.47 16,-99.47 16,-93.47 16,-93.47 16,-62.53 16,-62.53 16,-56.53 22,-50.53 28,-50.53 28,-50.53 175.45,-50.53 175.45,-50.53 181.45,-50.53 187.45,-56.53 187.45,-62.53 187.45,-62.53 187.45,-93.47 187.45,-93.47 187.45,-99.47 181.45,-105.47 175.45,-105.47"/>
<text xml:space="preserve" text-anchor="middle" x="101.72" y="-70.62" font-family="Arial" font-size="20.00">Alert Producer</text>
</g>
<!-- RS&#45;&gt;AP -->
<g id="edge15" class="edge">
<title>RS&#45;&gt;AP</title>
<path fill="none" stroke="black" stroke-dasharray="5,2" d="M147.26,-105.91C214.64,-146.17 251.27,-159.93 421.35,-211.82"/>
<polygon fill="black" stroke="black" points="420.18,-215.12 430.77,-214.69 422.22,-208.43 420.18,-215.12"/>
</g>
<!-- RU -->
<g id="node6" class="node">
<title>RU</title>
<path fill="none" stroke="black" d="M987.77,-361.46C987.77,-361.46 850.82,-361.46 850.82,-361.46 844.82,-361.46 838.82,-355.46 838.82,-349.46 838.82,-349.46 838.82,-318.54 838.82,-318.54 838.82,-312.54 844.82,-306.54 850.82,-306.54 850.82,-306.54 987.77,-306.54 987.77,-306.54 993.77,-306.54 999.77,-312.54 999.77,-318.54 999.77,-318.54 999.77,-349.46 999.77,-349.46 999.77,-355.46 993.77,-361.46 987.77,-361.46"/>
<text xml:space="preserve" text-anchor="middle" x="919.29" y="-326.62" font-family="Arial" font-size="20.00">Rule Updater</text>
</g>
<!-- TRULE&#45;&gt;RU -->
<g id="edge5" class="edge">
<title>TRULE&#45;&gt;RU</title>
<path fill="none" stroke="black" d="M753.38,-355.71C796.03,-368.95 817.42,-372.52 844.76,-365.23"/>
<polygon fill="black" stroke="black" points="845.62,-368.63 854.15,-362.35 843.56,-361.94 845.62,-368.63"/>
</g>
<!-- EV -->
<g id="node10" class="node">
<title>EV</title>
<path fill="none" stroke="black" d="M562.85,-105.47C562.85,-105.47 458.9,-105.47 458.9,-105.47 452.9,-105.47 446.9,-99.47 446.9,-93.47 446.9,-93.47 446.9,-62.53 446.9,-62.53 446.9,-56.53 452.9,-50.53 458.9,-50.53 458.9,-50.53 562.85,-50.53 562.85,-50.53 568.85,-50.53 574.85,-56.53 574.85,-62.53 574.85,-62.53 574.85,-93.47 574.85,-93.47 574.85,-99.47 568.85,-105.47 562.85,-105.47"/>
<text xml:space="preserve" text-anchor="middle" x="510.88" y="-70.62" font-family="Arial" font-size="20.00">Evaluator</text>
</g>
<!-- TRULE&#45;&gt;EV -->
<g id="edge16" class="edge">
<title>TRULE&#45;&gt;EV</title>
<path fill="none" stroke="black" stroke-dasharray="5,2" d="M518.09,-105.81C544.62,-206.42 556.41,-221.11 683.35,-319.37"/>
<polygon fill="black" stroke="black" points="681.03,-322.01 691.09,-325.35 685.32,-316.47 681.03,-322.01"/>
</g>
<!-- RCache -->
<g id="node7" class="node">
<title>RCache</title>
<path fill="none" stroke="black" d="M1197.36,-352.58C1197.36,-354.86 1170.2,-356.71 1136.77,-356.71 1103.34,-356.71 1076.19,-354.86 1076.19,-352.58 1076.19,-352.58 1076.19,-315.42 1076.19,-315.42 1076.19,-313.14 1103.34,-311.29 1136.77,-311.29 1170.2,-311.29 1197.36,-313.14 1197.36,-315.42 1197.36,-315.42 1197.36,-352.58 1197.36,-352.58"/>
<path fill="none" stroke="black" d="M1197.36,-352.58C1197.36,-350.3 1170.2,-348.45 1136.77,-348.45 1103.34,-348.45 1076.19,-350.3 1076.19,-352.58"/>
<text xml:space="preserve" text-anchor="middle" x="1136.77" y="-328.57" font-family="Arial" font-size="14.00">Redis Snapshot</text>
</g>
<!-- RU&#45;&gt;RCache -->
<g id="edge6" class="edge">
<title>RU&#45;&gt;RCache</title>
<path fill="none" stroke="black" d="M1000.03,-345.25C1029.26,-348.93 1048.44,-350.4 1064.87,-349.68"/>
<polygon fill="black" stroke="black" points="1064.69,-353.21 1074.39,-348.95 1064.15,-346.23 1064.69,-353.21"/>
</g>
<!-- RCache&#45;&gt;EV -->
<g id="edge17" class="edge">
<title>RCache&#45;&gt;EV</title>
<path fill="none" stroke="black" stroke-dasharray="5,2" d="M575.14,-98.24C921.77,-207.51 962.26,-222.57 1091.65,-305"/>
<polygon fill="black" stroke="black" points="1089.54,-307.8 1099.85,-310.24 1093.31,-301.9 1089.54,-307.8"/>
</g>
<!-- TNEW -->
<g id="node9" class="node">
<title>TNEW</title>
<ellipse fill="none" stroke="black" cx="310.05" cy="-78" rx="44.8" ry="18"/>
<text xml:space="preserve" text-anchor="middle" x="310.05" y="-73.72" font-family="Arial" font-size="12.00">alerts.new</text>
</g>
<!-- AP&#45;&gt;TNEW -->
<g id="edge7" class="edge">
<title>AP&#45;&gt;TNEW</title>
<path fill="none" stroke="black" d="M187.68,-71.63C204.06,-71.99 224.72,-73.01 254.07,-74.69"/>
<polygon fill="black" stroke="black" points="253.59,-78.17 263.77,-75.25 253.99,-71.18 253.59,-78.17"/>
</g>
<!-- TNEW&#45;&gt;EV -->
<g id="edge8" class="edge">
<title>TNEW&#45;&gt;EV</title>
<path fill="none" stroke="black" d="M351.25,-70.56C372.79,-67.74 392.51,-68.02 435.28,-71.4"/>
<polygon fill="black" stroke="black" points="434.9,-74.88 445.16,-72.21 435.47,-67.91 434.9,-74.88"/>
</g>
<!-- TMATCH -->
<g id="node11" class="node">
<title>TMATCH</title>
<ellipse fill="none" stroke="black" cx="713.96" cy="-78" rx="59.86" ry="18"/>
<text xml:space="preserve" text-anchor="middle" x="713.96" y="-73.72" font-family="Arial" font-size="12.00">alerts.matched</text>
</g>
<!-- EV&#45;&gt;TMATCH -->
<g id="edge9" class="edge">
<title>EV&#45;&gt;TMATCH</title>
<path fill="none" stroke="black" d="M575.18,-61.12C593.52,-59.59 614.38,-61.65 650.13,-67.29"/>
<polygon fill="black" stroke="black" points="649.24,-70.69 659.67,-68.82 650.35,-63.78 649.24,-70.69"/>
</g>
<!-- AG -->
<g id="node12" class="node">
<title>AG</title>
<path fill="none" stroke="black" d="M978.77,-105.47C978.77,-105.47 859.82,-105.47 859.82,-105.47 853.82,-105.47 847.82,-99.47 847.82,-93.47 847.82,-93.47 847.82,-62.53 847.82,-62.53 847.82,-56.53 853.82,-50.53 859.82,-50.53 859.82,-50.53 978.77,-50.53 978.77,-50.53 984.77,-50.53 990.77,-56.53 990.77,-62.53 990.77,-62.53 990.77,-93.47 990.77,-93.47 990.77,-99.47 984.77,-105.47 978.77,-105.47"/>
<text xml:space="preserve" text-anchor="middle" x="919.29" y="-70.62" font-family="Arial" font-size="20.00">Aggregator</text>
</g>
<!-- TMATCH&#45;&gt;AG -->
<g id="edge10" class="edge">
<title>TMATCH&#45;&gt;AG</title>
<path fill="none" stroke="black" d="M752.59,-64.07C791.42,-50.49 812.77,-45.39 836.43,-48.76"/>
<polygon fill="black" stroke="black" points="835.56,-52.16 846.05,-50.61 836.89,-45.28 835.56,-52.16"/>
</g>
<!-- TREADY -->
<g id="node13" class="node">
<title>TREADY</title>
<ellipse fill="none" stroke="black" cx="1136.77" cy="-47" rx="72" ry="18"/>
<text xml:space="preserve" text-anchor="middle" x="1136.77" y="-42.73" font-family="Arial" font-size="12.00">notifications.ready</text>
</g>
<!-- AG&#45;&gt;TREADY -->
<g id="edge11" class="edge">
<title>AG&#45;&gt;TREADY</title>
<path fill="none" stroke="black" d="M991.11,-59.56C1018.87,-52.65 1038.14,-48.35 1054.05,-45.95"/>
<polygon fill="black" stroke="black" points="1054.15,-49.47 1063.62,-44.72 1053.25,-42.52 1054.15,-49.47"/>
</g>
<!-- NDB -->
<g id="node15" class="node">
<title>NDB</title>
<path fill="none" stroke="black" d="M1569.15,-100.58C1569.15,-102.86 1541.82,-104.71 1508.19,-104.71 1474.55,-104.71 1447.23,-102.86 1447.23,-100.58 1447.23,-100.58 1447.23,-63.42 1447.23,-63.42 1447.23,-61.14 1474.55,-59.29 1508.19,-59.29 1541.82,-59.29 1569.15,-61.14 1569.15,-63.42 1569.15,-63.42 1569.15,-100.58 1569.15,-100.58"/>
<path fill="none" stroke="black" d="M1569.15,-100.58C1569.15,-98.3 1541.82,-96.45 1508.19,-96.45 1474.55,-96.45 1447.23,-98.3 1447.23,-100.58"/>
<text xml:space="preserve" text-anchor="middle" x="1508.19" y="-76.58" font-family="Arial" font-size="14.00">Notifications DB</text>
</g>
<!-- AG&#45;&gt;NDB -->
<g id="edge13" class="edge">
<title>AG&#45;&gt;NDB</title>
<path fill="none" stroke="black" d="M991.07,-72.55C1272.78,-51.25 1326.06,-49.23 1435.77,-68.41"/>
<polygon fill="black" stroke="black" points="1434.98,-71.82 1445.44,-70.13 1436.21,-64.93 1434.98,-71.82"/>
</g>
<!-- SN -->
<g id="node14" class="node">
<title>SN</title>
<path fill="none" stroke="black" d="M1370.23,-70.47C1370.23,-70.47 1285.78,-70.47 1285.78,-70.47 1279.78,-70.47 1273.78,-64.47 1273.78,-58.47 1273.78,-58.47 1273.78,-27.53 1273.78,-27.53 1273.78,-21.54 1279.78,-15.54 1285.78,-15.54 1285.78,-15.54 1370.23,-15.54 1370.23,-15.54 1376.23,-15.54 1382.23,-21.54 1382.23,-27.54 1382.23,-27.54 1382.23,-58.47 1382.23,-58.47 1382.23,-64.47 1376.23,-70.47 1370.23,-70.47"/>
<text xml:space="preserve" text-anchor="middle" x="1328" y="-35.62" font-family="Arial" font-size="20.00">Sender</text>
</g>
<!-- TREADY&#45;&gt;SN -->
<g id="edge12" class="edge">
<title>TREADY&#45;&gt;SN</title>
<path fill="none" stroke="black" d="M1203.04,-39.64C1230.03,-36.81 1247.83,-35.39 1262.46,-35.25"/>
<polygon fill="black" stroke="black" points="1262.06,-38.75 1272.11,-35.39 1262.16,-31.75 1262.06,-38.75"/>
</g>
<!-- SN&#45;&gt;NDB -->
<g id="edge14" class="edge">
<title>SN&#45;&gt;NDB</title>
<path fill="none" stroke="black" d="M1382.49,-48.05C1413.23,-51.06 1432.41,-53.5 1447.64,-57.01"/>
<polygon fill="black" stroke="black" points="1446.63,-60.36 1457.19,-59.55 1448.42,-53.6 1446.63,-60.36"/>
</g>
</g>
</svg>
