<?xml version="1.0" encoding="UTF-8" standalone="no"?>
<!DOCTYPE svg PUBLIC "-//W3C//DTD SVG 1.1//EN"
 "http://www.w3.org/Graphics/SVG/1.1/DTD/svg11.dtd">
<!-- Generated by graphviz version 14.1.2 (20260124.0452)
 -->
<!-- Title: G Pages: 1 -->
<svg width="1593pt" height="404pt"
 viewBox="0.00 0.00 1593.00 404.00" xmlns="http://www.w3.org/2000/svg" xmlns:xlink="http://www.w3.org/1999/xlink">
<g id="graph0" class="graph" transform="scale(1 1) rotate(0) translate(4 400)">
<title>G</title>
<polygon fill="white" stroke="none" points="-4,4 -4,-400 1589.15,-400 1589.15,4 -4,4"/>
<g id="clust1" class="cluster">
<title>cluster_cp</title>
<path fill="none" stroke="#999999" d="M58.62,-189C58.62,-189 1193.36,-189 1193.36,-189 1199.36,-189 1205.36,-195 1205.36,-201 1205.36,-201 1205.36,-376 1205.36,-376 1205.36,-382 1199.36,-388 1193.36,-388 1193.36,-388 58.62,-388 58.62,-388 52.63,-388 46.62,-382 46.62,-376 46.62,-376 46.62,-201 46.62,-201 46.62,-195 52.62,-189 58.62,-189"/>
<text xml:space="preserve" text-anchor="middle" x="625.99" y="-366.9" font-family="Arial" font-size="18.00">CONTROL PLANE</text>
</g>
<g id="clust2" class="cluster">
<title>cluster_dp</title>
<path fill="none" stroke="#999999" d="M20,-8C20,-8 1565.15,-8 1565.15,-8 1571.15,-8 1577.15,-14 1577.15,-20 1577.15,-20 1577.15,-169 1577.15,-169 1577.15,-175 1571.15,-181 1565.15,-181 1565.15,-181 20,-181 20,-181 14,-181 8,-175 8,-169 8,-169 8,-20 8,-20 8,-14 14,-8 20,-8"/>
<text xml:space="preserve" text-anchor="middle" x="792.57" y="-159.9" font-family="Arial" font-size="18.00">DATA PLANE</text>
</g>
<!-- Client -->
<g id="node1" class="node">
<title>Client</title>
<path fill="none" stroke="black" d="M136.82,-301.46C136.82,-301.46 66.62,-301.46 66.62,-301.46 60.62,-301.46 54.62,-295.46 54.62,-289.46 54.62,-289.46 54.62,-258.53 54.62,-258.53 54.62,-252.53 60.62,-246.53 66.62,-246.53 66.62,-246.53 136.82,-246.53 136.82,-246.53 142.82,-246.53 148.82,-252.53 148.82,-258.53 148.82,-258.53 148.82,-289.46 148.82,-289.46 148.82,-295.46 142.82,-301.46 136.82,-301.46"/>
<text xml:space="preserve" text-anchor="middle" x="101.72" y="-266.62" font-family="Arial" font-size="20.00">Client</text>
</g>
<!-- GW -->
<g id="node2" class="node">
<title>GW</title>
<path fill="none" stroke="black" d="M355.65,-301.46C355.65,-301.46 264.45,-301.46 264.45,-301.46 258.45,-301.46 252.45,-295.46 252.45,-289.46 252.45,-289.46 252.45,-258.53 252.45,-258.53 252.45,-252.53 258.45,-246.53 264.45,-246.53 264.45,-246.53 355.65,-246.53 355.65,-246.53 361.65,-246.53 367.65,-252.53 367.65,-258.53 367.65,-258.53 367.65,-289.46 367.65,-289.46 367.65,-295.46 361.65,-301.46 355.65,-301.46"/>
<text xml:space="preserve" text-anchor="middle" x="310.05" y="-266.62" font-family="Arial" font-size="20.00">API GW</text>
</g>
<!-- Client&#45;&gt;GW -->
<g id="edge1" class="edge">
<title>Client&#45;&gt;GW</title>
<path fill="none" stroke="black" d="M149.1,-277.47C170.7,-278.44 193.03,-278.11 240.85,-276.49"/>
<polygon fill="black" stroke="black" points="240.76,-280 250.64,-276.15 240.52,-273 240.76,-280"/>
</g>
<!-- RS -->
<g id="node3" class="node">
<title>RS</title>
<path fill="none" stroke="black" d="M577.1,-301.46C577.1,-301.46 444.65,-301.46 444.65,-301.46 438.65,-301.46 432.65,-295.46 432.65,-289.46 432.65,-289.46 432.65,-258.53 432.65,-258.53 432.65,-252.53 438.65,-246.53 444.65,-246.53 444.65,-246.53 577.1,-246.53 577.1,-246.53 583.1,-246.53 589.1,-252.53 589.1,-258.53 589.1,-258.53 589.1,-289.46 589.1,-289.46 589.1,-295.46 583.1,-301.46 577.1,-301.46"/>
<text xml:space="preserve" text-anchor="middle" x="510.88" y="-266.62" font-family="Arial" font-size="20.00">Rule Service</text>
</g>
<!-- GW&#45;&gt;RS -->
<g id="edge2" class="edge">
<title>GW&#45;&gt;RS</title>
<path fill="none" stroke="black" d="M367.93,-279.68C381.68,-280.12 397.41,-279.82 420.97,-278.78"/>
<polygon fill="black" stroke="black" points="421.03,-282.28 430.86,-278.32 420.71,-275.29 421.03,-282.28"/>
</g>
<!-- RDB -->
<g id="node4" class="node">
<title>RDB</title>
<path fill="none" stroke="black" d="M755.42,-238.58C755.42,-240.86 736.83,-242.71 713.96,-242.71 691.08,-242.71 672.5,-240.86 672.5,-238.58 672.5,-238.58 672.5,-201.42 672.5,-201.42 672.5,-199.14 691.08,-197.29 713.96,-197.29 736.83,-197.29 755.42,-199.14 755.42,-201.42 755.42,-201.42 755.42,-238.58 755.42,-238.58"/>
<path fill="none" stroke="black" d="M755.42,-238.58C755.42,-236.3 736.83,-234.45 713.96,-234.45 691.08,-234.45 672.5,-236.3 672.5,-238.58"/>
<text xml:space="preserve" text-anchor="middle" x="713.96" y="-214.57" font-family="Arial" font-size="14.00">Rules DB</text>
</g>
<!-- RS&#45;&gt;RDB -->
<g id="edge3" class="edge">
<title>RS&#45;&gt;RDB</title>
<path fill="none" stroke="black" d="M589.43,-253.3C606.48,-248.76 628.33,-242.91 661.04,-234.16"/>
<polygon fill="black" stroke="black" points="661.82,-237.58 670.58,-231.61 660.02,-230.81 661.82,-237.58"/>
</g>
<!-- TRULE -->
<g id="node5" class="node">
<title>TRULE</title>
<ellipse fill="none" stroke="black" cx="713.96" cy="-333" rx="54.51" ry="18"/>
<text xml:space="preserve" text-anchor="middle" x="713.96" y="-328.73" font-family="Arial" font-size="12.00">rule.changed</text>
</g>
<!-- RS&#45;&gt;TRULE -->
<g id="edge4" class="edge">
<title>RS&#45;&gt;TRULE</title>
<path fill="none" stroke="black" d="M547.97,-301.79C574.52,-319.49 594.96,-324.68 648.72,-328.83"/>
<polygon fill="black" stroke="black" points="648.19,-332.3 658.42,-329.54 648.7,-325.32 648.19,-332.3"/>
</g>
<!-- RU -->
<g id="node6" class="node">
<title>RU</title>
<path fill="none" stroke="black" d="M987.77,-351.46C987.77,-351.46 850.82,-351.46 850.82,-351.46 844.82,-351.46 838.82,-345.46 838.82,-339.46 838.82,-339.46 838.82,-308.54 838.82,-308.54 838.82,-302.54 844.82,-296.54 850.82,-296.54 850.82,-296.54 987.77,-296.54 987.77,-296.54 993.77,-296.54 999.77,-302.54 999.77,-308.54 999.77,-308.54 999.77,-339.46 999.77,-339.46 999.77,-345.46 993.77,-351.46 987.77,-351.46"/>
<text xml:space="preserve" text-anchor="middle" x="919.29" y="-316.62" font-family="Arial" font-size="20.00">Rule Updater</text>
</g>
<!-- TRULE&#45;&gt;RU -->
<g id="edge5" class="edge">
<title>TRULE&#45;&gt;RU</title>
<path fill="none" stroke="black" d="M753.47,-345.7C796.22,-358.92 817.64,-362.48 844.95,-355.2"/>
<polygon fill="black" stroke="black" points="845.78,-358.6 854.31,-352.32 843.72,-351.91 845.78,-358.6"/>
</g>
<!-- EV -->
<g id="node10" class="node">
<title>EV</title>
<path fill="none" stroke="black" d="M562.85,-101.47C562.85,-101.47 458.9,-101.47 458.9,-101.47 452.9,-101.47 446.9,-95.47 446.9,-89.47 446.9,-89.47 446.9,-58.53 446.9,-58.53 446.9,-52.53 452.9,-46.53 458.9,-46.53 458.9,-46.53 562.85,-46.53 562.85,-46.53 568.85,-46.53 574.85,-52.53 574.85,-58.53 574.85,-58.53 574.85,-89.47 574.85,-89.47 574.85,-95.47 568.85,-101.47 562.85,-101.47"/>
<text xml:space="preserve" text-anchor="middle" x="510.88" y="-66.62" font-family="Arial" font-size="20.00">Evaluator</text>
</g>
<!-- TRULE&#45;&gt;EV -->
<g id="edge16" class="edge">
<title>TRULE&#45;&gt;EV</title>
<path fill="none" stroke="black" stroke-dasharray="5,2" d="M518.53,-101.96C545.53,-198.84 557.64,-213.49 683.12,-309.48"/>
<polygon fill="black" stroke="black" points="680.68,-312.02 690.75,-315.31 684.93,-306.45 680.68,-312.02"/>
</g>
<!-- RCache -->
<g id="node7" class="node">
<title>RCache</title>
<path fill="none" stroke="black" d="M1197.36,-342.58C1197.36,-344.86 1170.2,-346.71 1136.77,-346.71 1103.34,-346.71 1076.19,-344.86 1076.19,-342.58 1076.19,-342.58 1076.19,-305.42 1076.19,-305.42 1076.19,-303.14 1103.34,-301.29 1136.77,-301.29 1170.2,-301.29 1197.36,-303.14 1197.36,-305.42 1197.36,-305.42 1197.36,-342.58 1197.36,-342.58"/>
<path fill="none" stroke="black" d="M1197.36,-342.58C1197.36,-340.3 1170.2,-338.45 1136.77,-338.45 1103.34,-338.45 1076.19,-340.3 1076.19,-342.58"/>
<text xml:space="preserve" text-anchor="middle" x="1136.77" y="-318.57" font-family="Arial" font-size="14.00">Redis Snapshot</text>
</g>
<!-- RU&#45;&gt;RCache -->
<g id="edge6" class="edge">
<title>RU&#45;&gt;RCache</title>
<path fill="none" stroke="black" d="M1000.21,-334.92C1029,-338.42 1048.05,-339.87 1064.28,-339.25"/>
<polygon fill="black" stroke="black" points="1064.47,-342.75 1074.19,-338.55 1063.97,-335.77 1064.47,-342.75"/>
</g>
<!-- RCache&#45;&gt;EV -->
<g id="edge17" class="edge">
<title>RCache&#45;&gt;EV</title>
<path fill="none" stroke="black" stroke-dasharray="5,2" d="M575.35,-92.63C923.04,-193.21 962.65,-207.4 1092.97,-294.46"/>
<polygon fill="black" stroke="black" points="1091.01,-297.36 1101.26,-300.02 1094.9,-291.54 1091.01,-297.36"/>
</g>
<!-- AP -->
<g id="node8" class="node">
<title>AP</title>
<path fill="none" stroke="black" d="M175.45,-101.47C175.45,-101.47 28,-101.47 28,-101.47 22,-101.47 16,-95.47 16,-89.47 16,-89.47 16,-58.53 16,-58.53 16,-52.53 22,-46.53 28,-46.53 28,-46.53 175.45,-46.53 175.45,-46.53 181.45,-46.53 187.45,-52.53 187.45,-58.53 187.45,-58.53 187.45,-89.47 187.45,-89.47 187.45,-95.47 181.45,-101.47 175.45,-101.47"/>
<text xml:space="preserve" text-anchor="middle" x="101.72" y="-66.62" font-family="Arial" font-size="20.00">Alert Producer</text>
</g>
<!-- AP&#45;&gt;GW -->
<g id="edge15" class="edge">
<title>AP&#45;&gt;GW</title>
<path fill="none" stroke="black" stroke-dasharray="5,2" d="M115.12,-101.87C145.1,-162.85 160.59,-178.53 256.43,-239.96"/>
<polygon fill="black" stroke="black" points="254.37,-242.8 264.68,-245.23 258.14,-236.9 254.37,-242.8"/>
</g>
<!-- TNEW -->
<g id="node9" class="node">
<title>TNEW</title>
<ellipse fill="none" stroke="black" cx="310.05" cy="-74" rx="44.8" ry="18"/>
<text xml:space="preserve" text-anchor="middle" x="310.05" y="-69.72" font-family="Arial" font-size="12.00">alerts.new</text>
</g>
<!-- AP&#45;&gt;TNEW -->
<g id="edge7" class="edge">
<title>AP&#45;&gt;TNEW</title>
<path fill="none" stroke="black" d="M187.67,-67.68C204.05,-68.03 224.71,-69.04 254.07,-70.71"/>
<polygon fill="black" stroke="black" points="253.58,-74.19 263.77,-71.27 253.99,-67.2 253.58,-74.19"/>
</g>
<!-- TNEW&#45;&gt;EV -->
<g id="edge8" class="edge">
<title>TNEW&#45;&gt;EV</title>
<path fill="none" stroke="black" d="M351.49,-66.58C372.95,-63.81 392.7,-64.1 435.42,-67.46"/>
<polygon fill="black" stroke="black" points="435.03,-70.94 445.28,-68.26 435.6,-63.97 435.03,-70.94"/>
</g>
<!-- TMATCH -->
<g id="node11" class="node">
<title>TMATCH</title>
<ellipse fill="none" stroke="black" cx="713.96" cy="-74" rx="59.86" ry="18"/>
<text xml:space="preserve" text-anchor="middle" x="713.96" y="-69.72" font-family="Arial" font-size="12.00">alerts.matched</text>
</g>
<!-- EV&#45;&gt;TMATCH -->
<g id="edge9" class="edge">
<title>EV&#45;&gt;TMATCH</title>
<path fill="none" stroke="black" d="M575.12,-57.22C593.45,-55.69 614.31,-57.74 650.09,-63.34"/>
<polygon fill="black" stroke="black" points="649.21,-66.75 659.64,-64.87 650.31,-59.84 649.21,-66.75"/>
</g>
<!-- AG -->
<g id="node12" class="node">
<title>AG</title>
<path fill="none" stroke="black" d="M978.77,-101.47C978.77,-101.47 859.82,-101.47 859.82,-101.47 853.82,-101.47 847.82,-95.47 847.82,-89.47 847.82,-89.47 847.82,-58.53 847.82,-58.53 847.82,-52.53 853.82,-46.53 859.82,-46.53 859.82,-46.53 978.77,-46.53 978.77,-46.53 984.77,-46.53 990.77,-52.53 990.77,-58.53 990.77,-58.53 990.77,-89.47 990.77,-89.47 990.77,-95.47 984.77,-101.47 978.77,-101.47"/>
<text xml:space="preserve" text-anchor="middle" x="919.29" y="-66.62" font-family="Arial" font-size="20.00">Aggregator</text>
</g>
<!-- TMATCH&#45;&gt;AG -->
<g id="edge10" class="edge">
<title>TMATCH&#45;&gt;AG</title>
<path fill="none" stroke="black" d="M752.61,-60.07C791.46,-46.5 812.82,-41.4 836.47,-44.77"/>
<polygon fill="black" stroke="black" points="835.61,-48.16 846.09,-46.62 836.93,-41.29 835.61,-48.16"/>
</g>
<!-- TREADY -->
<g id="node13" class="node">
<title>TREADY</title>
<ellipse fill="none" stroke="black" cx="1136.77" cy="-47" rx="72" ry="18"/>
<text xml:space="preserve" text-anchor="middle" x="1136.77" y="-42.73" font-family="Arial" font-size="12.00">notifications.ready</text>
</g>
<!-- AG&#45;&gt;TREADY -->
<g id="edge11" class="edge">
<title>AG&#45;&gt;TREADY</title>
<path fill="none" stroke="black" d="M991.17,-56.75C1019.43,-50.18 1038.9,-46.19 1054.97,-44.11"/>
<polygon fill="black" stroke="black" points="1055.08,-47.62 1064.65,-43.08 1054.34,-40.65 1055.08,-47.62"/>
</g>
<!-- NDB -->
<g id="node15" class="node">
<title>NDB</title>
<path fill="none" stroke="black" d="M1569.15,-100.58C1569.15,-102.86 1541.82,-104.71 1508.19,-104.71 1474.55,-104.71 1447.23,-102.86 1447.23,-100.58 1447.23,-100.58 1447.23,-63.42 1447.23,-63.42 1447.23,-61.14 1474.55,-59.29 1508.19,-59.29 1541.82,-59.29 1569.15,-61.14 1569.15,-63.42 1569.15,-63.42 1569.15,-100.58 1569.15,-100.58"/>
<path fill="none" stroke="black" d="M1569.15,-100.58C1569.15,-98.3 1541.82,-96.45 1508.19,-96.45 1474.55,-96.45 1447.23,-98.3 1447.23,-100.58"/>
<text xml:space="preserve" text-anchor="middle" x="1508.19" y="-76.58" font-family="Arial" font-size="14.00">Notifications DB</text>
</g>
<!-- AG&#45;&gt;NDB -->
<g id="edge13" class="edge">
<title>AG&#45;&gt;NDB</title>
<path fill="none" stroke="black" d="M991.11,-69.03C1272.98,-49.63 1326.26,-47.97 1435.86,-67.91"/>
<polygon fill="black" stroke="black" points="1435.05,-71.32 1445.52,-69.7 1436.32,-64.43 1435.05,-71.32"/>
</g>
<!-- SN -->
<g id="node14" class="node">
<title>SN</title>
<path fill="none" stroke="black" d="M1370.23,-70.47C1370.23,-70.47 1285.78,-70.47 1285.78,-70.47 1279.78,-70.47 1273.78,-64.47 1273.78,-58.47 1273.78,-58.47 1273.78,-27.53 1273.78,-27.53 1273.78,-21.54 1279.78,-15.54 1285.78,-15.54 1285.78,-15.54 1370.23,-15.54 1370.23,-15.54 1376.23,-15.54 1382.23,-21.54 1382.23,-27.54 1382.23,-27.54 1382.23,-58.47 1382.23,-58.47 1382.23,-64.47 1376.23,-70.47 1370.23,-70.47"/>
<text xml:space="preserve" text-anchor="middle" x="1328" y="-35.62" font-family="Arial" font-size="20.00">Sender</text>
</g>
<!-- TREADY&#45;&gt;SN -->
<g id="edge12" class="edge">
<title>TREADY&#45;&gt;SN</title>
<path fill="none" stroke="black" d="M1203.35,-39.79C1230.07,-37.06 1247.76,-35.69 1262.29,-35.53"/>
<polygon fill="black" stroke="black" points="1261.83,-39.02 1271.87,-35.64 1261.91,-32.02 1261.83,-39.02"/>
</g>
<!-- SN&#45;&gt;NDB -->
<g id="edge14" class="edge">
<title>SN&#45;&gt;NDB</title>
<path fill="none" stroke="black" d="M1382.51,-48.17C1413.04,-51.22 1432.17,-53.68 1447.35,-57.14"/>
<polygon fill="black" stroke="black" points="1446.29,-60.48 1456.85,-59.63 1448.06,-53.71 1446.29,-60.48"/>
</g>
</g>
</svg>
